<?xml version="1.0" standalone="no"?>
<!DOCTYPE svg PUBLIC "-//W3C//DTD SVG 20010904//EN"
 "http://www.w3.org/TR/2001/REC-SVG-20010904/DTD/svg10.dtd">
<svg version="1.0" xmlns="http://www.w3.org/2000/svg"
 width="512.000000pt" height="512.000000pt" viewBox="0 0 512.000000 512.000000"
 preserveAspectRatio="xMidYMid meet">
<metadata>
Created by potrace 1.14, written by Peter Selinger 2001-2017
</metadata>
<g transform="translate(0.000000,512.000000) scale(0.100000,-0.100000)"
fill="#000000" stroke="none">
<path d="M2890 5107 c0 -4 -4 -5 -10 -2 -5 3 -10 1 -10 -5 0 -6 -5 -8 -10 -5
-6 4 -9 1 -8 -7 2 -7 -2 -12 -9 -11 -7 2 -10 -4 -7 -12 4 -8 1 -15 -5 -15 -6
0 -10 -6 -8 -12 1 -7 -3 -12 -9 -11 -6 1 -10 -8 -9 -20 1 -12 -4 -28 -12 -35
-7 -8 -11 -18 -8 -23 4 -5 1 -9 -5 -9 -6 0 -9 -3 -7 -7 3 -5 0 -19 -6 -33 -5
-14 -11 -31 -13 -39 -1 -8 -9 -18 -16 -22 -10 -7 -10 -9 2 -9 10 0 11 -3 4 -8
-7 -4 -14 -18 -15 -32 -2 -14 -11 -31 -19 -38 -8 -8 -10 -11 -4 -8 8 4 11 -3
10 -18 0 -16 -5 -21 -11 -16 -7 6 -11 0 -10 -18 0 -15 -5 -41 -12 -58 -7 -17
-9 -34 -6 -38 4 -3 1 -6 -6 -6 -8 0 -11 -7 -7 -15 3 -8 1 -15 -4 -15 -5 0 -7
-7 -4 -15 4 -8 2 -15 -4 -15 -6 0 -9 -8 -8 -17 2 -9 -4 -30 -12 -45 -8 -16
-12 -38 -9 -49 3 -10 1 -17 -4 -13 -5 3 -9 -1 -10 -8 -2 -30 -9 -53 -17 -56
-5 -1 -7 -14 -4 -29 3 -15 1 -23 -4 -20 -6 3 -11 -8 -12 -26 -2 -17 -8 -37
-15 -46 -10 -12 -9 -13 3 -6 13 8 13 6 2 -8 -8 -9 -11 -21 -7 -27 3 -5 2 -10
-3 -10 -6 0 -13 -7 -16 -16 -4 -10 -2 -13 7 -8 9 6 9 5 0 -8 -7 -8 -10 -18 -6
-21 3 -4 1 -7 -4 -7 -6 0 -10 -8 -9 -17 2 -10 -1 -20 -5 -23 -5 -3 -11 -17
-13 -30 -2 -14 -5 -26 -7 -27 -1 -2 -3 -7 -4 -13 -1 -5 -4 -13 -5 -17 -1 -5
-2 -11 -1 -15 0 -5 -3 -8 -8 -8 -5 0 -7 -10 -3 -22 3 -14 1 -19 -6 -14 -7 4
-10 -3 -9 -21 1 -20 -2 -27 -12 -25 -11 2 -12 0 -2 -11 9 -12 9 -16 -2 -20 -9
-3 -13 -16 -12 -31 2 -14 0 -26 -4 -26 -6 0 -10 -17 -13 -57 -1 -7 -5 -13 -9
-13 -5 0 -6 -6 -3 -14 3 -8 1 -17 -5 -21 -15 -9 -14 -28 2 -20 6 4 5 1 -3 -7
-8 -7 -15 -20 -15 -28 0 -8 -5 -14 -11 -13 -6 1 -11 -4 -11 -12 0 -8 4 -12 9
-9 4 3 8 0 8 -5 0 -6 -5 -11 -11 -11 -5 0 -7 -4 -4 -10 3 -5 0 -10 -7 -10 -10
0 -9 -3 2 -10 12 -8 12 -10 -2 -15 -10 -4 -14 -14 -10 -27 3 -13 1 -19 -5 -15
-6 4 -9 -4 -7 -18 1 -14 -2 -25 -8 -25 -6 0 -5 -7 2 -16 11 -12 11 -15 -1 -12
-8 2 -13 -3 -11 -9 1 -7 -4 -13 -10 -13 -9 0 -8 -4 2 -10 8 -5 10 -10 4 -10
-6 0 -11 -6 -12 -12 -1 -26 -12 -62 -19 -67 -5 -3 -9 -19 -10 -36 -2 -16 -7
-31 -11 -33 -5 -1 -7 -14 -4 -27 2 -15 0 -25 -7 -25 -7 0 -9 -5 -6 -10 4 -6 1
-17 -5 -25 -6 -8 -8 -20 -4 -26 5 -8 3 -9 -6 -4 -8 5 -11 3 -8 -6 3 -8 -2 -23
-11 -33 -9 -11 -11 -16 -4 -13 6 4 14 3 18 -3 3 -5 -1 -10 -11 -10 -11 0 -15
-6 -11 -20 3 -11 1 -20 -5 -20 -6 0 -8 -7 -4 -15 3 -8 1 -15 -5 -15 -6 0 -7
-4 -4 -10 3 -5 0 -10 -7 -10 -11 0 -10 -2 0 -9 11 -7 11 -9 -1 -14 -9 -3 -13
-16 -12 -31 2 -14 -1 -28 -6 -32 -5 -3 -7 -10 -4 -15 4 -5 2 -9 -4 -9 -5 0 -8
-11 -7 -25 2 -14 -1 -22 -7 -18 -6 4 -8 -2 -5 -15 4 -12 2 -22 -4 -22 -5 0 -6
-4 -3 -10 3 -5 1 -10 -6 -10 -8 0 -7 -5 2 -17 12 -14 12 -16 0 -8 -11 6 -13 4
-8 -8 4 -10 0 -20 -11 -26 -10 -6 -12 -11 -4 -11 6 0 12 -5 12 -11 0 -5 -5 -7
-11 -3 -8 4 -9 0 -4 -15 4 -13 2 -21 -5 -21 -6 0 -8 -5 -5 -10 4 -6 1 -17 -5
-25 -10 -12 -10 -15 1 -15 11 0 11 -2 2 -8 -7 -4 -11 -18 -9 -29 3 -16 1 -20
-9 -17 -10 4 -13 -1 -10 -17 3 -13 -2 -36 -10 -51 -7 -16 -9 -25 -3 -22 7 5 8
2 2 -7 -4 -8 -9 -18 -10 -24 -1 -5 -6 -19 -10 -29 -6 -15 -4 -17 7 -11 12 7
12 6 -1 -9 -14 -17 -18 -31 -22 -68 -1 -10 -5 -18 -9 -18 -4 0 -5 -10 -1 -22
3 -13 1 -19 -5 -15 -6 4 -10 -8 -10 -31 0 -20 -4 -36 -9 -35 -5 1 -9 -16 -8
-38 0 -21 -3 -39 -8 -39 -5 0 -7 -3 -5 -7 3 -5 0 -19 -5 -33 -6 -14 -12 -34
-14 -45 -7 -41 -10 -50 -17 -62 -4 -6 -1 -14 5 -16 10 -4 10 -6 0 -6 -7 -1
-10 -6 -7 -11 3 -5 2 -10 -3 -10 -5 0 -9 -8 -9 -17 0 -44 -3 -54 -15 -47 -10
6 -10 4 0 -8 10 -13 10 -17 -4 -22 -13 -5 -14 -9 -5 -20 8 -10 9 -16 1 -21
-14 -9 -13 -28 3 -20 6 4 1 -3 -13 -15 -14 -12 -19 -19 -12 -15 7 4 12 0 12
-9 0 -9 -6 -16 -12 -16 -9 0 -8 -4 2 -10 10 -6 11 -10 3 -10 -7 0 -13 -11 -13
-24 0 -13 -6 -27 -12 -29 -9 -4 -9 -6 1 -6 11 -1 10 -5 -5 -17 -10 -8 -13 -12
-5 -8 10 5 11 1 6 -17 -4 -13 -11 -28 -16 -34 -5 -5 -9 -14 -9 -20 0 -5 5 -3
10 5 5 8 10 10 10 4 0 -6 -3 -14 -7 -18 -4 -3 -8 -16 -10 -28 -2 -12 -9 -28
-16 -37 -10 -12 -9 -13 3 -6 12 7 13 6 4 -6 -6 -8 -10 -24 -9 -36 1 -12 -2
-20 -7 -17 -5 4 -8 0 -7 -7 1 -8 -1 -22 -6 -32 -4 -9 -5 -26 -2 -37 3 -13 1
-18 -6 -13 -6 4 -8 0 -4 -10 3 -10 2 -17 -3 -17 -5 0 -6 -7 -3 -17 4 -10 2
-14 -4 -10 -6 4 -10 -5 -11 -21 0 -57 -2 -63 -14 -56 -9 5 -9 2 1 -9 9 -12 10
-17 2 -17 -7 0 -9 -5 -6 -10 3 -6 0 -10 -7 -10 -11 0 -11 -2 0 -9 10 -6 10
-10 -3 -21 -12 -10 -13 -16 -4 -26 8 -10 8 -14 1 -14 -6 0 -9 -6 -6 -14 3 -8
1 -17 -5 -20 -6 -4 -7 -14 -4 -23 4 -11 3 -14 -5 -9 -8 5 -10 2 -6 -9 4 -8 0
-23 -7 -32 -12 -14 -12 -16 1 -8 13 8 13 7 1 -8 -11 -14 -11 -17 0 -17 11 0
11 -2 2 -8 -7 -4 -14 -17 -16 -27 -1 -11 -7 -26 -11 -34 -7 -10 -5 -12 3 -6
10 6 11 3 2 -13 -6 -12 -12 -32 -13 -46 -1 -15 -7 -26 -13 -26 -5 0 -3 -5 5
-10 8 -5 10 -10 5 -10 -6 0 -12 -10 -13 -22 -5 -63 -9 -88 -14 -94 -4 -3 -4
-12 -1 -20 3 -8 1 -14 -5 -14 -6 0 -8 -10 -4 -22 4 -16 2 -19 -9 -13 -11 7
-12 6 -2 -6 10 -12 10 -18 1 -27 -9 -9 -9 -12 1 -12 11 0 11 -3 1 -15 -6 -8
-9 -19 -5 -25 3 -5 3 -10 -2 -10 -8 0 -12 -26 -16 -122 -1 -32 -6 -58 -12 -58
-5 0 -3 -5 5 -10 8 -5 10 -10 4 -10 -6 0 -11 -7 -11 -15 0 -8 4 -12 9 -9 4 3
8 1 8 -5 0 -5 -6 -12 -12 -14 -9 -4 -9 -6 -1 -6 6 -1 9 -10 6 -21 -3 -13 0
-20 8 -20 12 0 12 -2 1 -9 -17 -10 -17 -21 -3 -30 6 -4 12 -19 13 -34 1 -15 8
-29 16 -32 7 -3 11 -8 9 -12 -6 -10 13 -27 35 -31 20 -3 78 36 78 53 0 6 8 20
18 31 9 10 24 28 32 39 13 17 13 18 0 10 -8 -4 -5 2 8 14 24 23 30 47 10 35
-7 -4 -3 3 10 15 12 12 20 26 17 32 -4 5 -2 9 4 9 5 0 8 8 7 18 -2 9 1 20 7
23 5 4 11 17 12 30 4 39 5 40 14 35 4 -3 6 6 3 19 -2 14 0 25 6 25 6 0 9 9 7
20 -2 11 0 20 5 20 5 0 7 9 5 20 -2 11 -1 20 3 20 7 0 11 16 14 58 1 6 6 12
11 12 5 0 7 7 3 15 -3 8 0 15 6 15 6 0 8 3 5 7 -4 3 -1 13 6 21 10 13 9 14 -3
7 -12 -7 -13 -6 -4 6 13 16 28 66 32 107 1 7 5 11 10 9 4 -3 7 14 7 38 0 24 3
42 6 39 12 -7 18 23 6 35 -8 8 -7 11 6 11 9 0 17 5 17 11 0 5 -4 7 -10 4 -5
-3 -10 -2 -10 3 0 6 6 12 13 15 9 3 12 16 9 37 -3 23 -1 31 7 26 7 -5 9 -1 4
10 -5 13 -3 15 7 9 10 -6 11 -4 4 6 -13 20 -11 32 6 47 8 8 9 11 3 7 -7 -3
-13 -1 -13 4 0 6 4 11 9 11 6 0 8 9 6 20 -2 11 2 20 8 20 7 0 6 4 -3 10 -12 8
-12 10 4 16 14 5 15 9 4 15 -10 6 -8 9 7 9 11 0 16 4 10 8 -14 10 -17 32 -5
32 5 0 9 3 9 7 -4 25 2 63 10 59 4 -3 7 6 5 19 -1 14 2 25 8 25 6 0 5 6 -2 15
-9 11 -9 15 -1 15 7 0 9 5 6 10 -3 5 -3 10 2 10 4 0 9 19 11 42 1 23 7 48 13
55 6 6 8 16 5 22 -4 5 1 17 10 25 8 9 10 16 4 16 -7 0 -8 6 -1 19 6 10 7 21 4
25 -3 3 2 14 11 25 12 13 14 21 6 26 -8 5 -8 11 1 21 6 8 8 14 3 15 -5 0 0 4
11 9 19 8 19 9 1 9 -20 1 -20 1 0 16 14 11 15 14 4 15 -12 0 -12 2 -2 9 8 4
12 17 10 27 -2 10 2 18 8 17 7 -1 10 11 7 33 -3 27 0 34 9 28 7 -4 10 -4 6 1
-4 4 -2 15 5 23 9 13 9 14 0 8 -18 -10 -16 4 7 46 12 24 16 39 9 43 -7 5 -6
12 2 21 6 8 9 17 6 21 -4 3 1 12 11 20 9 8 11 12 4 8 -10 -5 -11 0 -6 22 4 15
10 30 13 33 4 3 6 12 6 20 0 21 36 39 58 28 12 -6 17 -5 17 4 0 8 3 9 8 3 10
-14 32 -17 32 -4 0 8 6 7 17 -2 11 -10 14 -10 9 -1 -4 6 -3 12 3 12 5 0 13 -5
16 -10 5 -8 11 -8 19 -1 9 7 17 7 26 -2 8 -8 11 -8 7 -1 -5 8 7 13 33 16 33 3
39 1 35 -12 -3 -9 1 -7 10 5 14 17 17 18 25 5 7 -10 10 -11 10 -2 0 8 10 11
31 7 17 -3 28 -2 25 4 -8 12 27 9 36 -4 5 -6 8 -4 8 5 0 13 2 13 9 1 8 -12 12
-12 25 -2 13 11 16 11 16 0 0 -11 2 -11 10 1 8 12 11 13 19 1 7 -10 9 -11 13
-1 5 17 38 22 38 7 0 -7 5 -5 10 3 5 8 10 11 10 6 0 -5 8 -2 17 5 11 10 14 10
9 2 -4 -7 -3 -13 3 -13 5 0 13 5 16 10 5 8 11 8 20 0 10 -8 15 -8 20 0 5 8 11
8 21 -1 11 -9 14 -9 14 1 0 9 4 9 17 -1 14 -12 16 -12 8 0 -6 11 -4 13 8 8 10
-3 17 -2 17 3 0 6 10 6 26 0 23 -9 25 -8 20 6 -5 13 -4 14 7 6 13 -11 60 -8
80 5 5 3 13 0 17 -8 6 -9 13 -10 22 -3 7 6 37 11 67 12 31 1 58 7 63 15 6 9 8
9 8 -2 0 -11 3 -11 17 0 14 12 16 12 8 0 -5 -10 -4 -12 3 -7 23 14 56 16 64 3
5 -8 8 -7 8 5 0 12 6 15 22 10 11 -3 19 -1 16 4 -4 5 10 9 30 9 31 0 37 -4 37
-22 0 -12 4 -25 9 -30 5 -5 6 -2 1 6 -5 9 -4 12 3 7 6 -3 9 -18 6 -31 -2 -14
-1 -25 4 -25 8 0 10 -7 13 -47 1 -10 7 -24 13 -32 7 -10 8 -13 0 -8 -6 3 -11
-1 -11 -9 0 -8 6 -13 13 -10 8 3 10 -2 6 -16 -4 -16 -2 -19 9 -13 11 7 12 6 2
-6 -8 -9 -9 -20 -3 -29 6 -8 10 -25 10 -37 0 -13 6 -23 13 -23 8 0 7 -4 -3
-10 -10 -6 -11 -10 -2 -10 6 0 12 -5 12 -11 0 -5 -6 -7 -12 -4 -7 4 -4 -1 6
-9 11 -9 16 -16 12 -16 -5 0 -4 -6 3 -13 7 -10 7 -17 0 -24 -8 -8 -8 -13 0
-17 6 -4 11 -16 11 -27 0 -10 6 -19 13 -19 8 0 7 -4 -3 -10 -11 -7 -11 -10 -2
-10 7 0 11 -4 7 -9 -3 -6 1 -16 8 -23 12 -11 12 -15 -2 -26 -9 -7 -11 -11 -5
-8 7 3 15 -1 18 -10 4 -10 2 -13 -7 -8 -6 4 -3 -3 8 -16 11 -13 14 -20 6 -15
-9 5 -12 3 -9 -6 3 -8 11 -13 17 -11 9 2 9 -3 1 -18 -8 -15 -8 -20 1 -20 6 0
9 -6 6 -14 -3 -8 1 -17 10 -21 12 -4 13 -9 5 -17 -8 -8 -8 -17 -1 -30 5 -10 7
-23 4 -28 -3 -6 -2 -10 4 -10 5 0 8 -8 7 -18 -2 -9 2 -20 8 -25 8 -5 7 -10 -2
-16 -11 -6 -10 -10 4 -15 16 -6 16 -8 4 -16 -11 -7 -12 -10 -2 -10 7 0 10 -5
7 -10 -3 -5 -2 -10 2 -10 8 0 14 -28 16 -75 1 -11 7 -26 14 -33 7 -7 10 -19 7
-27 -3 -8 -2 -20 2 -27 8 -13 9 -19 15 -75 2 -18 8 -33 14 -33 5 0 3 -5 -5
-10 -10 -6 -11 -10 -2 -10 6 0 12 -8 12 -18 0 -10 6 -24 13 -31 10 -11 10 -13
0 -7 -7 4 -13 2 -13 -3 0 -6 5 -11 10 -11 6 0 10 -5 10 -11 0 -5 -4 -8 -10 -4
-5 3 -3 -7 5 -21 8 -15 12 -31 9 -36 -3 -4 1 -8 8 -8 9 0 9 -3 -2 -10 -12 -8
-12 -10 -1 -10 8 0 11 -3 8 -7 -4 -3 1 -15 10 -26 10 -11 13 -17 6 -14 -6 4
-14 3 -18 -3 -3 -5 1 -10 9 -10 9 0 15 -8 14 -17 -3 -38 2 -54 15 -47 9 6 9 5
0 -7 -9 -11 -9 -19 -2 -26 6 -6 13 -23 15 -39 3 -16 6 -38 9 -49 2 -11 4 -24
4 -28 1 -5 6 -5 12 -1 7 4 7 -1 -1 -16 -8 -15 -8 -20 -1 -16 7 5 11 -2 11 -18
0 -14 5 -26 10 -26 7 0 7 -7 -1 -21 -8 -15 -8 -19 0 -15 7 5 11 -1 11 -14 0
-14 4 -19 13 -14 8 5 8 2 -2 -9 -7 -9 -9 -17 -4 -17 5 0 10 -7 11 -15 1 -8 3
-22 4 -30 1 -8 5 -15 10 -15 4 0 8 -8 8 -18 0 -10 6 -24 13 -31 10 -11 9 -13
-3 -7 -8 4 -4 -2 10 -14 14 -12 19 -19 13 -15 -7 3 -13 1 -13 -4 0 -6 5 -11
10 -11 6 0 10 -9 10 -21 0 -11 5 -17 10 -14 6 3 10 -1 10 -9 0 -9 5 -16 11
-16 5 0 8 -4 5 -8 -7 -12 24 -53 35 -47 5 4 9 -1 9 -9 0 -9 5 -16 11 -16 5 0
7 -4 4 -10 -3 -5 1 -10 10 -10 9 0 14 -4 11 -9 -3 -4 6 -7 19 -5 14 1 23 -2
20 -6 -3 -5 -1 -11 4 -14 5 -4 12 -2 16 4 4 6 10 8 15 5 5 -3 15 1 23 9 8 8
17 12 21 9 3 -4 6 1 6 9 0 9 6 18 14 21 9 3 12 15 9 31 -3 15 -1 26 5 26 6 0
9 9 7 20 -2 11 0 20 4 20 5 0 6 12 3 26 -4 21 -2 25 9 19 11 -7 12 -6 2 7 -7
8 -10 18 -6 22 11 11 10 46 -1 46 -6 0 -4 5 4 10 12 8 12 10 1 10 -11 0 -11 3
0 17 10 11 10 14 1 9 -6 -4 -12 -3 -12 3 0 5 4 13 10 16 6 4 4 16 -6 31 -12
17 -13 24 -4 24 10 0 10 3 0 15 -6 8 -9 19 -5 25 3 5 2 10 -2 10 -5 0 -9 9
-10 20 -1 13 2 18 10 13 7 -4 6 0 -2 10 -7 9 -11 24 -7 32 3 9 2 13 -3 10 -5
-3 -12 -1 -16 5 -3 5 -2 10 3 10 5 0 9 7 9 15 0 8 -4 12 -9 9 -5 -4 -9 0 -7 7
3 27 -1 50 -9 45 -4 -2 -7 13 -6 35 1 21 -2 39 -6 39 -4 0 -6 14 -4 31 2 17 0
27 -6 24 -5 -3 -7 4 -5 16 2 12 -2 36 -10 55 -8 20 -10 36 -4 39 5 4 3 18 -6
34 -8 16 -11 31 -8 35 4 3 0 6 -7 6 -11 0 -11 3 -3 11 9 9 8 18 -4 35 -8 13
-12 24 -8 24 4 0 1 8 -6 17 -12 15 -12 16 1 8 11 -7 10 -2 -4 19 -10 16 -13
25 -6 21 9 -6 9 -3 1 14 -7 12 -9 26 -6 31 3 6 2 10 -3 10 -5 0 -9 6 -10 13
-2 36 -13 90 -21 105 -5 9 -7 25 -6 35 2 9 -1 17 -7 17 -6 0 -8 13 -6 29 3 18
0 28 -6 24 -5 -4 -7 1 -3 10 4 10 1 17 -5 17 -6 0 -8 3 -5 7 4 3 2 12 -4 20
-8 9 -8 13 -1 13 13 0 4 29 -15 48 -9 10 -10 19 -3 33 8 14 7 19 -1 19 -6 0
-9 7 -5 15 3 8 2 15 -2 15 -4 0 -9 12 -10 27 -1 15 -8 30 -15 35 -12 7 -2 12
18 8 5 -1 2 7 -7 17 -9 10 -20 32 -24 48 -11 41 -11 42 -13 66 0 11 -5 17 -11
14 -6 -3 -7 1 -4 9 3 9 11 13 17 9 6 -3 7 -1 3 5 -4 7 -14 12 -22 12 -8 0 -14
5 -14 11 0 5 4 8 9 5 5 -4 7 3 4 14 -3 11 -8 20 -12 20 -3 0 -7 12 -8 28 -3
47 -10 67 -24 64 -8 -1 -5 4 5 13 18 13 15 20 -7 16 -4 -1 -5 10 -3 24 3 14 1
25 -4 25 -4 0 -11 7 -14 16 -3 8 -2 12 4 9 6 -3 10 -1 10 4 0 6 -6 11 -12 11
-10 0 -10 2 0 9 11 6 10 10 -3 15 -13 5 -15 9 -6 20 8 10 8 16 -4 26 -8 7 -12
16 -9 21 3 5 -1 9 -8 9 -9 0 -9 3 2 10 10 6 11 10 3 10 -7 0 -13 8 -13 18 0
10 -5 23 -12 30 -9 9 -9 12 2 12 11 0 12 2 3 8 -7 4 -14 24 -15 44 -2 20 -6
34 -10 31 -5 -2 -8 7 -8 21 0 14 -4 28 -10 31 -5 3 -10 12 -10 18 0 7 4 6 10
-3 6 -9 10 -10 10 -3 0 6 -5 15 -11 18 -6 4 -8 13 -5 21 3 8 -1 14 -9 14 -8 0
-15 5 -15 11 0 5 5 7 11 3 8 -4 8 0 0 15 -7 11 -9 21 -5 21 3 0 1 6 -5 14 -9
11 -9 15 1 19 8 3 6 6 -5 6 -10 1 -15 5 -12 11 3 5 -1 22 -9 38 -8 16 -13 32
-10 35 3 3 -2 21 -10 41 -10 25 -11 34 -3 29 7 -4 7 0 -2 10 -7 9 -10 17 -6
17 4 0 2 7 -5 15 -7 8 -10 22 -6 30 3 8 1 15 -5 15 -6 0 -9 6 -6 14 3 8 -1 20
-9 27 -10 8 -11 15 -4 24 8 10 8 15 -1 21 -8 5 -9 3 -4 -6 6 -9 4 -11 -4 -6
-7 5 -10 11 -7 14 3 3 0 12 -7 20 -7 10 -8 13 -1 9 8 -4 11 2 10 17 0 13 -4
22 -8 19 -5 -2 -8 9 -8 26 0 16 -4 31 -9 33 -5 2 -11 17 -13 33 -1 17 -6 32
-10 35 -4 3 -8 20 -10 38 -1 18 -6 32 -11 32 -4 0 -6 4 -3 8 3 5 -1 21 -9 36
-10 18 -10 24 -2 19 9 -5 9 -3 0 9 -7 8 -10 18 -6 21 3 4 1 7 -6 7 -7 0 -10 4
-6 9 3 5 1 13 -5 16 -8 5 -8 11 0 20 8 10 8 15 -1 21 -8 5 -10 3 -4 -7 5 -8 4
-11 0 -6 -5 4 -10 16 -12 27 -6 38 -8 45 -18 52 -6 5 -4 8 4 8 11 0 9 5 -5 22
-10 12 -14 18 -7 15 8 -5 8 -1 0 18 -7 14 -16 25 -21 25 -5 0 -3 7 4 15 8 10
9 15 2 15 -7 0 -9 7 -5 17 4 10 2 14 -4 10 -6 -4 -13 2 -16 13 -3 13 -1 18 6
13 8 -4 8 -2 0 9 -7 8 -10 18 -6 21 3 4 2 7 -4 7 -6 0 -9 10 -6 23 4 18 3 19
-7 7 -10 -12 -11 -11 -7 8 3 12 1 22 -4 22 -4 0 -6 7 -3 15 4 9 0 15 -7 15
-11 0 -11 3 1 10 10 6 11 10 3 10 -7 0 -13 9 -13 20 0 11 -5 20 -11 20 -8 0
-8 5 1 15 7 8 8 15 4 15 -12 0 -38 59 -30 67 3 4 -2 15 -11 26 -10 11 -12 17
-5 13 6 -4 12 -2 12 3 0 6 -5 11 -12 11 -6 0 -8 3 -5 7 4 3 0 17 -9 31 -11 17
-12 22 -3 16 12 -6 12 -5 0 9 -7 9 -11 26 -8 37 3 11 0 18 -6 17 -6 -1 -12 8
-13 21 -3 40 -4 43 -13 37 -6 -3 -8 5 -5 19 2 14 -2 31 -11 39 -11 12 -12 17
-2 20 9 4 9 6 0 6 -7 1 -13 12 -13 25 0 31 -10 57 -19 51 -4 -2 -7 9 -6 25 1
17 -3 30 -8 30 -5 0 -7 11 -5 25 4 17 1 25 -8 25 -17 0 -18 12 -1 29 10 10 9
12 -3 9 -8 -2 -14 5 -14 17 0 11 -4 23 -8 26 -4 3 -9 18 -11 35 -2 16 -7 37
-10 47 -25 63 -24 61 -26 88 0 11 -5 17 -11 14 -5 -3 -10 -1 -10 4 0 6 6 11
13 11 7 0 8 3 2 8 -14 10 -39 56 -26 48 6 -4 4 6 -4 20 -8 15 -12 31 -9 36 3
4 0 8 -6 8 -6 0 -8 5 -5 10 3 6 1 10 -4 10 -6 0 -10 3 -9 8 4 14 -35 102 -45
102 -7 0 -7 4 0 11 9 9 6 17 -10 31 -12 11 -15 17 -7 13 10 -4 9 -2 -2 8 -10
8 -15 17 -11 20 3 4 2 7 -4 7 -6 0 -16 14 -23 30 -7 17 -18 30 -24 30 -7 0 -6
4 2 9 10 6 8 10 -8 14 -15 4 -21 11 -17 21 4 9 1 15 -6 13 -7 -1 -11 4 -9 11
1 6 -3 12 -8 12 -6 0 -20 9 -32 19 -11 11 -27 17 -36 14 -10 -4 -13 -2 -8 5 5
8 -1 11 -18 10 -15 -1 -26 -6 -26 -11z m45 -578 c-3 -16 -1 -18 9 -10 10 8 11
4 8 -20 -3 -20 0 -34 9 -40 10 -6 11 -9 2 -9 -7 0 -13 -5 -13 -11 0 -5 4 -8 9
-5 5 3 11 -1 15 -9 3 -8 0 -15 -6 -15 -7 0 -6 -6 3 -16 7 -8 14 -32 16 -52 2
-20 9 -43 16 -51 10 -12 9 -13 -3 -6 -13 8 -13 7 -1 -8 7 -9 10 -17 6 -17 -5
0 0 -10 11 -22 10 -12 13 -18 7 -14 -7 4 -13 2 -13 -3 0 -6 4 -11 8 -11 4 0 8
-8 9 -17 3 -41 8 -63 13 -63 3 0 7 -11 8 -26 1 -17 -2 -23 -10 -18 -7 4 -8 3
-4 -4 4 -7 15 -12 24 -12 15 0 15 -2 2 -10 -12 -8 -12 -10 -1 -10 8 0 11 -3 8
-6 -3 -4 -2 -16 4 -27 8 -14 8 -18 0 -13 -7 5 -9 1 -5 -8 3 -9 9 -16 14 -16 4
0 6 -16 5 -35 -2 -19 1 -32 6 -29 5 3 6 10 3 16 -4 6 -2 8 3 5 6 -4 9 -20 7
-36 -2 -17 1 -33 6 -36 6 -4 8 -10 5 -15 -3 -5 0 -20 8 -32 7 -13 13 -33 12
-46 -1 -12 1 -25 6 -28 4 -2 5 -12 2 -21 -4 -11 -3 -14 5 -9 8 5 10 2 6 -8 -3
-9 -1 -16 5 -16 13 0 10 -22 -4 -32 -6 -5 -3 -8 7 -8 12 0 15 -7 13 -26 -1
-15 3 -28 12 -31 12 -5 12 -7 1 -14 -9 -6 -10 -9 -1 -9 7 0 10 -7 7 -15 -4 -9
0 -15 7 -15 11 0 11 -3 -1 -10 -10 -6 -11 -10 -2 -10 6 0 12 -11 12 -25 0 -14
4 -25 8 -25 5 0 9 -6 9 -12 3 -46 9 -68 16 -68 5 0 3 -8 -4 -17 -8 -9 -9 -14
-3 -10 16 9 36 -37 21 -52 -8 -8 -8 -11 1 -11 7 0 12 -9 12 -21 0 -13 4 -18
13 -13 9 5 9 4 0 -6 -8 -9 -9 -18 -3 -25 5 -6 11 -20 13 -31 1 -10 6 -24 10
-31 4 -6 4 -18 1 -26 -3 -8 0 -18 5 -22 6 -3 9 -11 6 -16 -4 -5 -1 -9 5 -9 6
0 9 -4 6 -9 -3 -5 1 -14 9 -21 12 -10 13 -16 4 -26 -9 -11 -8 -18 1 -29 7 -8
10 -22 6 -30 -3 -8 -1 -15 5 -15 6 0 7 -4 4 -10 -3 -5 -1 -10 6 -10 8 0 7 -5
-2 -17 -8 -9 -9 -14 -3 -10 7 4 15 0 18 -9 4 -10 2 -13 -7 -8 -8 5 -7 2 2 -9
8 -10 11 -20 7 -24 -3 -3 1 -15 11 -25 12 -13 13 -18 3 -18 -9 0 -7 -7 6 -22
12 -13 13 -18 4 -13 -9 5 -7 -1 5 -15 11 -13 14 -20 6 -15 -11 6 -13 4 -7 -11
5 -10 9 -25 9 -32 0 -8 7 -10 16 -7 12 5 13 3 4 -6 -8 -8 -9 -19 -2 -36 5 -14
7 -29 3 -34 -3 -5 0 -9 6 -9 6 0 8 -4 5 -10 -3 -5 0 -10 7 -10 9 0 9 -3 -2
-10 -11 -7 -11 -10 -2 -10 7 0 11 -4 7 -9 -3 -5 -1 -13 5 -16 8 -5 7 -12 -2
-23 -10 -12 -10 -14 0 -8 7 4 12 2 13 -6 0 -7 2 -20 4 -30 2 -12 -3 -15 -22
-12 -17 3 -22 1 -18 -7 4 -6 -4 -3 -19 6 -25 17 -26 17 -19 -1 5 -16 4 -17 -8
-7 -17 14 -30 14 -46 2 -7 -7 -14 -6 -18 1 -3 6 -12 7 -18 3 -19 -11 -47 -11
-47 1 0 6 -4 5 -9 -3 -6 -9 -10 -10 -16 -2 -5 8 -11 9 -19 2 -7 -6 -22 -9 -34
-6 -12 2 -22 -1 -22 -6 0 -6 -5 -7 -10 -4 -6 4 -7 12 -3 18 5 9 3 9 -8 1 -16
-13 -90 -24 -83 -12 3 4 -5 4 -18 -1 -15 -6 -31 -5 -42 1 -14 8 -17 7 -12 -1
9 -14 0 -14 -24 -1 -13 7 -21 7 -26 -2 -5 -7 -3 -8 6 -3 9 5 11 4 6 -4 -6 -9
-11 -9 -23 1 -19 15 -23 15 -34 -4 -7 -11 -11 -10 -19 2 -9 13 -10 13 -10 0 0
-12 -2 -12 -9 -1 -6 9 -11 10 -15 3 -4 -6 -14 -8 -23 -5 -9 4 -14 2 -11 -3 7
-11 -62 -12 -79 -1 -6 4 -14 3 -18 -3 -3 -5 -11 -10 -16 -10 -6 0 -7 6 -3 13
5 7 1 6 -10 -3 -21 -17 -68 -20 -78 -5 -5 6 -8 3 -8 -7 0 -10 -5 -18 -11 -18
-5 0 -8 4 -5 9 3 5 -1 12 -10 15 -8 3 -13 2 -10 -3 8 -12 -55 -19 -89 -10 -22
7 -24 5 -14 -7 10 -12 8 -13 -13 -5 -13 5 -31 5 -39 0 -12 -6 -15 -3 -14 11 1
11 4 22 7 26 4 3 4 12 1 20 -3 8 -1 14 5 14 6 0 9 11 7 25 -1 14 2 25 6 25 11
0 7 23 -6 32 -6 4 -2 8 8 8 15 0 17 6 13 30 -2 17 -1 28 4 25 4 -3 11 2 14 11
4 9 2 13 -5 8 -8 -4 -7 0 0 15 7 12 9 26 6 31 -3 6 -1 10 5 10 6 0 9 4 5 9 -3
6 3 14 12 20 17 10 17 10 -2 11 -17 0 -17 2 -5 10 8 5 11 10 6 10 -4 0 -1 12
9 26 9 15 12 23 5 19 -9 -6 -9 -3 -1 14 7 12 9 26 6 31 -3 6 -1 10 5 10 6 0
10 10 8 23 -2 13 2 21 9 20 9 -2 10 4 3 23 -7 17 -7 23 1 19 6 -4 9 0 7 11 -2
11 2 18 8 17 5 -1 9 12 8 30 -1 18 1 36 6 42 5 6 10 24 12 40 2 17 8 39 14 50
6 11 9 30 9 42 -1 12 2 20 6 17 5 -3 9 8 9 25 0 16 5 33 11 36 6 4 8 13 5 20
-2 7 2 21 9 32 8 11 12 28 10 39 -1 10 3 28 9 39 7 11 11 30 10 43 -1 12 3 22
9 22 6 0 7 3 4 6 -3 4 -2 15 4 25 7 14 6 19 -3 19 -7 0 -2 7 10 16 16 11 20
20 13 31 -10 18 -3 53 11 53 5 0 7 4 3 9 -3 5 0 13 6 17 8 4 7 9 -2 15 -11 7
-11 9 -1 9 7 0 10 5 7 10 -3 6 -2 10 3 10 6 0 10 6 9 13 -1 30 4 48 12 43 4
-3 7 6 5 19 -1 14 3 25 9 25 7 0 6 5 -3 10 -13 9 -13 12 0 23 9 6 15 24 15 39
-1 15 2 26 5 26 18 -2 23 4 10 12 -9 6 -11 10 -3 10 7 0 10 7 6 17 -5 12 -3
14 8 8 12 -8 12 -6 0 8 -11 14 -11 18 4 23 13 5 14 9 3 15 -10 7 -11 9 0 9 7
0 11 4 7 9 -3 5 -1 12 4 15 4 3 9 17 9 32 0 14 6 30 13 35 12 7 12 9 -1 9 -11
0 -11 3 -2 12 7 7 12 22 12 35 0 13 4 23 9 23 5 0 7 14 6 30 -1 17 1 30 5 30
3 0 7 6 7 13 1 22 12 67 19 78 4 7 3 9 -2 6 -5 -3 -10 3 -10 13 0 10 5 16 11
13 7 -2 12 8 12 24 0 15 4 37 8 47 6 14 5 17 -4 11 -8 -4 -6 3 4 18 11 18 13
27 5 32 -8 5 -7 12 3 23 8 10 13 25 12 35 -2 9 1 17 6 17 6 0 7 5 3 12 -4 6
-3 8 4 4 6 -3 9 -16 7 -27z m-255 -983 c0 -3 -4 -8 -10 -11 -5 -3 -10 -1 -10
4 0 6 5 11 10 11 6 0 10 -2 10 -4z"/>
<path d="M3315 3060 c3 -5 11 -10 16 -10 6 0 7 5 4 10 -3 6 -11 10 -16 10 -6
0 -7 -4 -4 -10z"/>
<path d="M1470 4199 c0 -4 -9 -9 -21 -12 -12 -3 -18 -10 -14 -17 4 -6 1 -9 -7
-8 -7 2 -12 -3 -10 -9 1 -7 -4 -13 -12 -13 -10 0 -13 -7 -11 -20 2 -11 0 -18
-6 -15 -5 4 -10 3 -10 -2 -1 -4 -3 -21 -5 -37 -2 -16 -9 -33 -16 -37 -10 -7
-10 -9 1 -9 10 0 11 -3 2 -13 -6 -8 -9 -23 -6 -35 2 -12 0 -22 -5 -22 -4 0 -6
-9 -3 -20 3 -11 -1 -28 -8 -37 -10 -12 -10 -14 -1 -9 6 4 12 3 12 -3 0 -5 -4
-12 -9 -15 -4 -3 -7 -22 -4 -42 3 -26 0 -34 -8 -28 -8 5 -9 3 -3 -7 13 -21 17
-62 4 -54 -7 4 -7 -2 -1 -18 6 -14 7 -27 4 -31 -9 -9 -73 45 -66 57 3 6 1 7
-6 3 -10 -6 -24 2 -87 54 -7 5 -15 6 -18 3 -3 -4 -6 -1 -6 6 0 7 -4 9 -10 6
-5 -3 -10 -1 -10 4 0 6 -7 11 -15 11 -7 0 -19 8 -24 18 -6 9 -11 13 -11 7 0
-5 -5 -3 -10 5 -7 11 -10 11 -10 2 0 -10 -3 -10 -14 0 -8 7 -11 18 -8 23 3 6
-2 4 -11 -4 -15 -11 -17 -11 -17 2 0 10 -6 13 -20 10 -11 -3 -20 -1 -20 4 0 5
-12 10 -27 11 -15 1 -30 8 -35 15 -6 9 -8 9 -8 0 0 -8 -11 -11 -30 -9 -17 2
-30 -1 -30 -8 0 -6 -4 -6 -9 2 -7 11 -9 10 -15 -3 -3 -9 -10 -13 -16 -10 -5 3
-10 0 -10 -8 0 -8 -8 -21 -17 -28 -17 -13 -17 -13 -3 6 13 18 13 19 0 8 -9 -7
-17 -29 -18 -49 -2 -21 -5 -41 -8 -45 -2 -4 0 -10 5 -14 6 -3 8 -12 4 -20 -3
-8 0 -15 7 -15 7 0 10 -8 7 -19 -3 -14 -1 -18 9 -14 9 3 14 -1 14 -12 0 -9 5
-13 10 -10 6 3 10 -1 10 -9 0 -9 7 -16 16 -16 8 0 12 -4 9 -10 -3 -5 3 -10 14
-10 12 0 21 -5 21 -11 0 -5 5 -7 12 -3 7 5 9 2 6 -7 -4 -10 1 -15 15 -17 12 0
23 -6 25 -12 2 -5 8 -8 13 -4 5 3 9 0 9 -6 0 -6 5 -8 10 -5 6 3 10 1 10 -5 0
-6 5 -8 10 -5 6 3 10 1 10 -5 0 -6 5 -8 10 -5 6 3 10 1 10 -5 0 -6 5 -8 10 -5
6 3 10 1 10 -5 0 -6 4 -9 9 -6 5 3 14 0 20 -8 7 -8 21 -12 31 -9 14 4 20 0 20
-11 0 -9 5 -16 11 -16 5 0 7 5 3 11 -5 8 -1 8 13 0 11 -6 24 -7 29 -3 5 4 2
-2 -6 -12 -10 -13 -10 -17 -2 -12 21 13 13 -5 -17 -34 -16 -16 -32 -26 -36
-22 -5 4 -5 1 -1 -6 4 -7 1 -15 -8 -18 -9 -3 -13 -10 -10 -15 3 -5 0 -9 -5 -9
-6 0 -11 -6 -11 -14 0 -8 -11 -23 -25 -34 -13 -11 -21 -22 -18 -26 3 -3 0 -6
-7 -6 -7 0 -10 -3 -7 -7 4 -3 -1 -12 -11 -19 -9 -7 -17 -16 -17 -21 -2 -20
-17 -53 -26 -53 -5 0 -9 -7 -9 -16 0 -8 -4 -13 -9 -10 -5 4 -7 -3 -4 -14 3
-12 0 -20 -8 -20 -7 0 -9 -3 -6 -7 4 -3 -1 -12 -11 -20 -9 -8 -11 -12 -4 -8 6
3 12 1 12 -4 0 -6 -5 -11 -11 -11 -5 0 -7 -5 -4 -10 4 -6 1 -17 -5 -25 -9 -11
-9 -19 -2 -28 7 -8 7 -18 2 -27 -5 -8 -6 -19 -2 -25 3 -5 7 -15 8 -21 3 -20
37 -53 47 -47 6 4 8 0 5 -8 -4 -10 2 -15 20 -17 14 -1 29 -8 34 -15 6 -9 8 -9
8 2 0 8 3 11 7 8 3 -4 13 -1 21 6 13 10 14 9 8 -1 -6 -10 -2 -10 18 0 14 6 26
15 26 19 0 5 7 5 17 2 12 -5 14 -3 8 7 -6 10 -4 12 11 6 10 -4 15 -4 12 0 -12
11 44 76 60 69 11 -4 12 -2 4 7 -11 14 10 42 23 30 4 -4 6 -2 5 3 -4 18 12 55
21 49 5 -3 9 4 9 15 0 12 5 21 12 21 6 0 8 3 5 7 -4 3 1 12 11 20 10 9 11 12
2 7 -8 -4 -1 8 15 26 17 18 24 30 18 26 -18 -10 -16 2 2 21 8 8 13 20 9 26 -3
7 1 4 9 -5 8 -10 17 -15 20 -12 3 3 3 -3 0 -15 -3 -12 -1 -21 6 -21 6 0 11 -5
11 -11 0 -5 -6 -7 -12 -4 -7 4 -4 -1 6 -9 13 -11 15 -16 6 -16 -10 0 -9 -4 3
-18 10 -10 17 -26 17 -36 0 -10 7 -24 15 -32 8 -8 12 -20 9 -27 -2 -7 5 -22
16 -34 11 -12 20 -27 20 -33 0 -5 5 -10 11 -10 5 0 8 -4 4 -9 -3 -5 2 -16 10
-24 8 -9 15 -19 15 -23 0 -4 12 -18 28 -32 15 -13 20 -21 12 -17 -8 4 -1 -6
17 -23 17 -16 29 -33 26 -36 -4 -3 1 -6 11 -6 9 0 14 -4 11 -10 -3 -5 3 -10
15 -10 12 0 18 -4 15 -10 -3 -5 -1 -10 5 -10 6 0 8 -5 5 -10 -4 -6 -3 -9 2 -8
16 4 53 -13 53 -25 0 -7 4 -6 10 3 6 9 10 10 10 3 0 -6 9 -10 20 -8 11 2 22 0
25 -5 6 -10 45 -1 45 11 0 5 5 9 11 9 16 0 39 26 39 44 0 9 4 16 9 16 5 0 8
11 6 25 -1 14 2 25 8 25 5 0 4 7 -3 15 -7 8 -9 15 -5 15 4 0 1 8 -6 17 -11 13
-11 15 -1 9 10 -6 9 0 -3 23 -9 17 -13 36 -10 41 3 6 1 10 -4 10 -6 0 -11 9
-11 21 0 12 -4 17 -11 13 -6 -4 -9 1 -7 12 3 19 -25 68 -34 59 -2 -3 -5 2 -6
10 -1 8 -3 22 -4 30 -1 8 -8 17 -15 19 -8 3 -11 11 -7 18 5 8 2 9 -10 5 -11
-4 -15 -3 -11 4 4 5 -3 19 -16 30 -12 10 -18 19 -13 19 5 0 1 5 -8 11 -10 5
-18 17 -18 24 0 8 -4 15 -10 15 -5 0 -10 7 -10 16 0 8 -4 13 -9 9 -5 -3 -12 4
-16 15 -3 11 -11 20 -16 20 -6 0 -7 5 -4 10 3 6 1 10 -5 10 -6 0 -8 5 -4 12 4
6 3 8 -3 5 -9 -6 -29 12 -48 42 -5 10 -4 12 4 7 6 -4 18 -3 25 3 8 7 27 13 44
14 16 1 28 5 25 10 -2 4 7 7 21 7 14 0 26 5 26 11 0 6 6 9 14 6 7 -3 23 1 35
9 12 8 26 12 31 9 6 -3 13 1 16 9 3 9 10 16 16 16 5 0 6 -5 2 -11 -3 -6 5 -4
18 5 14 9 28 13 33 9 4 -5 5 -2 1 5 -4 7 -2 12 5 12 7 0 21 8 32 18 13 10 17
12 12 3 -5 -8 7 -3 27 12 19 15 37 24 40 21 3 -3 5 3 5 13 -1 10 4 17 11 16 6
-2 12 2 12 8 0 5 5 7 10 4 6 -4 10 -3 9 2 -4 15 21 63 32 63 8 0 8 4 -1 15 -7
8 -8 15 -3 15 15 0 2 67 -16 87 -10 10 -16 24 -15 31 1 7 0 8 -3 2 -7 -15 -23
-12 -23 6 0 8 -4 12 -10 9 -5 -3 -18 -2 -28 4 -10 5 -24 6 -32 1 -8 -5 -22 -4
-32 1 -12 7 -18 6 -18 -1 0 -6 -11 -8 -25 -6 -14 3 -23 1 -20 -4 3 -5 1 -11
-5 -15 -5 -3 -10 -1 -10 6 0 8 -7 6 -19 -5 -11 -10 -24 -15 -29 -12 -5 3 -15
-1 -22 -9 -10 -12 -16 -13 -28 -3 -13 11 -14 11 -7 -1 6 -11 4 -13 -8 -8 -9 3
-18 0 -21 -9 -3 -8 -14 -14 -23 -12 -11 2 -17 -2 -15 -11 2 -11 0 -12 -10 -4
-14 12 -16 69 -3 81 5 4 5 1 0 -7 -6 -10 -4 -12 4 -7 8 6 9 12 2 20 -6 7 -8
15 -5 18 3 3 6 28 8 56 2 27 6 54 10 60 3 6 2 13 -3 17 -5 3 -8 14 -6 25 2 11
-1 22 -7 26 -7 4 -6 9 3 15 11 6 10 11 -3 26 -10 10 -15 30 -14 46 2 20 -4 34
-25 51 -15 13 -25 27 -21 31 4 5 -3 5 -16 2 -12 -3 -20 -1 -16 4 6 10 5 10
-48 13 -21 1 -38 -1 -38 -5z"/>
<path d="M1039 3323 c-13 -16 -12 -17 4 -4 9 7 17 15 17 17 0 8 -8 3 -21 -13z"/>
</g>
</svg>
